<?xml version="1.0" encoding="UTF-8"?>
<!-- Generator: Adobe Illustrator 19.2.1, SVG Export Plug-In . SVG Version: 6.00 Build 0)  -->
<svg version="1.1" id="Layer_1" xmlns="http://www.w3.org/2000/svg" xmlns:xlink="http://www.w3.org/1999/xlink" x="0px" y="0px" width="101px" height="58px" viewBox="0 0 101 58" style="enable-background:new 0 0 101 58;" xml:space="preserve">
<style type="text/css">
	.st0{fill:#1A1A1A;}
	.st1{fill:#F38B00;}
	.st2{fill:#D7006D;}
	.st3{fill:#B51783;}
	.st4{fill:#82BC00;}
	.st5{fill:#2D5E8C;}
</style>
<g>
	<g>
		<path class="st0" d="M46,28.3c-1.3-1.4-3-2.1-5-2.1c-2.1,0-3.8,0.7-5,2.1c-1.2,1.4-1.8,2.6-1.8,6.2c0,3.6,0.6,4.9,1.8,6.2    c1.3,1.4,3,2.1,5,2.1c2.1,0,3.8-0.7,5-2.1c1.2-1.4,1.8-2.6,1.8-6.2C47.8,30.9,47.2,29.7,46,28.3z M43.6,38.3    C43.1,39,42,39.4,41,39.4c-1.1,0-2.1-0.5-2.6-1.2c-0.6-0.9-0.8-1.3-0.8-3.7c0-2.4,0.2-2.8,0.8-3.7c0.5-0.7,1.5-1.2,2.6-1.2    c1.1,0,2.1,0.5,2.6,1.2c0.6,0.9,0.8,1.3,0.8,3.7C44.3,36.9,44.2,37.4,43.6,38.3z"/>
	</g>
</g>
<g>
	<g>
		<path class="st0" d="M61.7,28.3c-1.3-1.4-3-2.1-5-2.1c-2.1,0-3.8,0.7-5,2.1c-1.2,1.4-1.8,2.6-1.8,6.2c0,3.6,0.6,4.9,1.8,6.2    c1.3,1.4,3,2.1,5,2.1c2.1,0,3.8-0.7,5-2.1c1.2-1.4,1.8-2.6,1.8-6.2C63.5,30.9,63,29.7,61.7,28.3z M59.3,38.3    c-0.5,0.7-1.5,1.2-2.6,1.2c-1.1,0-2.1-0.5-2.6-1.2c-0.6-0.9-0.8-1.3-0.8-3.7c0-2.4,0.2-2.8,0.8-3.7c0.5-0.7,1.5-1.2,2.6-1.2    c1.1,0,2.1,0.5,2.6,1.2c0.6,0.9,0.8,1.3,0.8,3.7C60.1,36.9,59.9,37.4,59.3,38.3z"/>
	</g>
</g>
<g>
	<path class="st0" d="M3.2,21.7c-1.3,1.2-2,2.9-2,4.8c0,3.5,2.3,5.9,6,6.4l1.3,0.2l1.7,0.2c1.8,0.2,2.8,1.3,2.8,2.9   c0,1.8-1.7,3-4.3,3c-1.7,0-3.5-0.5-5-1.4l0,0c-0.8-0.5-1.8-0.4-2.3,0.3c0,0,0,0,0,0c0,0-0.2,0.2-1.3,1.5l0,0.1l0.1,0   c2.3,2.1,5.2,3.1,8.6,3.1c5,0,8-2.5,8-6.6c0-2.7-1.6-6-6.2-6.5l-2.5-0.3c-1.9-0.3-3.1-1.3-3.1-2.8c0-1,0.4-1.8,1.1-2.3   c0.6-0.5,1.5-0.8,2.6-0.8c1.4,0,2.8,0.3,4.3,1c0.8,0.3,1.7,0.1,2.2-0.6l1.1-1.6l-0.1,0c-2.3-1.6-4.8-2.4-7.3-2.4   C6.4,19.9,4.5,20.6,3.2,21.7z"/>
</g>
<g>
	<path class="st0" d="M19.3,26.7v16h3.4v-16H19.3z"/>
</g>
<g>
	<g>
		<path class="st0" d="M19.3,20.4V23c0,1,0.8,1.8,1.8,1.8h1.7v-2.6c0-1-0.8-1.8-1.8-1.8H19.3z"/>
	</g>
</g>
<g>
	<path class="st0" d="M28,20.4c-1,0-1.8,0.8-1.8,1.8v16.3c0,2.5,1.6,4.1,4.1,4.1h2.5l-0.7-3.3h-1.3c-0.8,0-1.1-0.3-1.1-1.2   c0,0,0-8.6,0-8.8c0.1,0,2.4,0,2.4,0v-2.8c0,0-2.3,0-2.4,0c0-0.1,0-6.3,0-6.3H28z"/>
</g>
<g>
	<path class="st1" d="M81.3,34.2c0.1-0.4,0.2-0.8,0.2-1.3l-5.2,3.6c-0.3,0.2-0.6,0.7-0.6,1.1c0,0-0.1,1.6-0.4,2.6   c-0.7,2.1-0.6,3.4,0.1,3.9c0.7,0.5,2,0.1,3.7-1.2c0.9-0.7,2.4-1.3,2.4-1.3c0.3-0.1,0.7-0.5,0.8-0.9l1.6-6c-0.4,0.1-0.8,0.3-1.1,0.5   C81.5,36.2,80.8,35.7,81.3,34.2z"/>
	<path class="st2" d="M79.8,29.6c-1.3-1-1.1-1.7,0.6-1.7c0.4,0,0.9-0.1,1.3-0.2l-5-3.8c-0.3-0.2-0.8-0.3-1.2-0.2   c0,0-1.5,0.5-2.6,0.5c-2.1,0-3.3,0.6-3.6,1.4c-0.2,0.8,0.5,1.9,2.2,3.1c0.9,0.6,1.9,1.8,1.9,1.8c0.2,0.3,0.7,0.5,1.1,0.5l6.1-0.4   C80.4,30.2,80.2,29.9,79.8,29.6z"/>
	<path class="st3" d="M88.8,20.5c0.1-0.3,0.1-0.9-0.1-1.1c0,0-0.9-1.3-1.2-2.3c-0.6-2-1.5-3-2.3-3c-0.8,0-1.7,1-2.3,3   c-0.3,1-1.2,2.3-1.2,2.3c-0.2,0.3-0.3,0.8-0.1,1.2l2.2,5.7c0.2-0.3,0.4-0.7,0.6-1.1c0.5-1.5,1.3-1.5,1.8,0c0.1,0.4,0.3,0.7,0.6,1.1   L88.8,20.5z"/>
	<path class="st4" d="M94.6,37.5c0-0.4-0.3-0.8-0.6-1.1l-5.2-3.6c0,0.4,0,0.9,0.2,1.3c0.5,1.5-0.2,2-1.5,1.1   c-0.3-0.2-0.7-0.4-1.1-0.5l1.6,6c0.1,0.4,0.5,0.8,0.8,0.9c0,0,1.5,0.6,2.4,1.3c1.7,1.3,3,1.7,3.7,1.2c0.7-0.5,0.8-1.8,0.1-3.9   C94.7,39.1,94.6,37.5,94.6,37.5z"/>
	<path class="st5" d="M100.9,25.5c-0.2-0.8-1.4-1.3-3.6-1.4c-1.1,0-2.6-0.5-2.6-0.5c-0.3-0.1-0.9,0-1.2,0.2l-5,3.8   c0.4,0.2,0.8,0.2,1.3,0.2c1.6,0,1.9,0.8,0.6,1.7c-0.3,0.2-0.6,0.5-0.8,0.9l6.1,0.4c0.4,0,0.8-0.2,1.1-0.5c0,0,1-1.2,1.9-1.8   C100.5,27.4,101.2,26.3,100.9,25.5z"/>
</g>
</svg>